<svg xmlns="http://www.w3.org/2000/svg" viewBox="-2 -2.5 13 13" shape-rendering="crispEdges"><rect x="-2" y="-2.5" width="13" height="13" fill="#fff"/><g fill="#0a0a0a"><rect x="4" y="0" width="1" height="1"/><rect x="2" y="1" width="5" height="1"/><rect x="0" y="2" width="9" height="1"/><rect x="1" y="4" width="1" height="1"/><rect x="3" y="4" width="1" height="1"/><rect x="5" y="4" width="1" height="1"/><rect x="7" y="4" width="1" height="1"/><rect x="1" y="5" width="1" height="1"/><rect x="3" y="5" width="1" height="1"/><rect x="5" y="5" width="1" height="1"/><rect x="7" y="5" width="1" height="1"/><rect x="1" y="6" width="1" height="1"/><rect x="3" y="6" width="1" height="1"/><rect x="5" y="6" width="1" height="1"/><rect x="7" y="6" width="1" height="1"/><rect x="0" y="7" width="9" height="1"/></g></svg>