<svg xmlns="http://www.w3.org/2000/svg" viewBox="0 0 300 300" role="img"><rect width="100%" height="100%" fill="#f4f4f2"/><rect x="79.5" y="61.5" width="15" height="15" fill="#00b5e2"></rect><rect x="97.5" y="61.5" width="15" height="15" fill="#00b5e2"></rect><rect x="115.5" y="61.5" width="15" height="15" fill="#00b5e2"></rect><rect x="133.5" y="61.5" width="15" height="15" fill="#00b5e2"></rect><rect x="151.5" y="61.5" width="15" height="15" fill="#00b5e2"></rect><rect x="169.5" y="61.5" width="15" height="15" fill="#00b5e2"></rect><rect x="187.5" y="61.5" width="15" height="15" fill="#00b5e2"></rect><rect x="205.5" y="61.5" width="15" height="15" fill="#00b5e2"></rect><rect x="79.5" y="79.5" width="15" height="15" fill="#00b5e2"></rect><rect x="97.5" y="79.5" width="15" height="15" fill="#00b5e2"></rect><rect x="115.5" y="79.5" width="15" height="15" fill="#00b5e2"></rect><rect x="133.5" y="79.5" width="15" height="15" fill="#00b5e2"></rect><rect x="151.5" y="79.5" width="15" height="15" fill="#00b5e2"></rect><rect x="169.5" y="79.5" width="15" height="15" fill="#00b5e2"></rect><rect x="187.5" y="79.5" width="15" height="15" fill="#00b5e2"></rect><rect x="205.5" y="79.5" width="15" height="15" fill="#00b5e2"></rect><rect x="79.5" y="97.5" width="15" height="15" fill="#00b5e2"></rect><rect x="97.5" y="97.5" width="15" height="15" fill="#00b5e2"></rect><rect x="115.5" y="97.5" width="15" height="15" fill="#00b5e2"></rect><rect x="133.5" y="97.5" width="15" height="15" fill="#00b5e2"></rect><rect x="151.5" y="97.5" width="15" height="15" fill="#00b5e2"></rect><rect x="169.5" y="97.5" width="15" height="15" fill="#00b5e2"></rect><rect x="187.5" y="97.5" width="15" height="15" fill="#00b5e2"></rect><rect x="205.5" y="97.5" width="15" height="15" fill="#00b5e2"></rect><rect x="79.5" y="115.5" width="15" height="15" fill="#00b5e2"></rect><rect x="97.5" y="115.5" width="15" height="15" fill="#00b5e2"></rect><rect x="115.5" y="115.5" width="15" height="15" fill="#00b5e2"></rect><rect x="133.5" y="115.5" width="15" height="15" fill="#00b5e2"></rect><rect x="151.5" y="115.5" width="15" height="15" fill="#00b5e2"></rect><rect x="169.5" y="115.5" width="15" height="15" fill="#00b5e2"></rect><rect x="187.5" y="115.5" width="15" height="15" fill="#00b5e2"></rect><rect x="205.5" y="115.5" width="15" height="15" fill="#e6e6e3"></rect><rect x="79.5" y="133.5" width="15" height="15" fill="#e6e6e3"></rect><rect x="97.5" y="133.5" width="15" height="15" fill="#e6e6e3"></rect><rect x="115.5" y="133.5" width="15" height="15" fill="#e6e6e3"></rect><rect x="133.5" y="133.5" width="15" height="15" fill="#e6e6e3"></rect><rect x="151.5" y="133.5" width="15" height="15" fill="#e6e6e3"></rect><rect x="169.5" y="133.5" width="15" height="15" fill="#e6e6e3"></rect><rect x="187.5" y="133.5" width="15" height="15" fill="#e6e6e3"></rect><rect x="205.5" y="133.5" width="15" height="15" fill="#e6e6e3"></rect><rect x="79.5" y="151.5" width="15" height="15" fill="#e6e6e3"></rect><rect x="97.5" y="151.5" width="15" height="15" fill="#e6e6e3"></rect><rect x="115.5" y="151.5" width="15" height="15" fill="#e6e6e3"></rect><rect x="133.5" y="151.5" width="15" height="15" fill="#e6e6e3"></rect><rect x="151.5" y="151.5" width="15" height="15" fill="#e6e6e3"></rect><rect x="169.5" y="151.5" width="15" height="15" fill="#e6e6e3"></rect><rect x="187.5" y="151.5" width="15" height="15" fill="#e6e6e3"></rect><rect x="205.5" y="151.5" width="15" height="15" fill="#e6e6e3"></rect><rect x="79.5" y="169.5" width="15" height="15" fill="#e6e6e3"></rect><rect x="97.5" y="169.5" width="15" height="15" fill="#e6e6e3"></rect><rect x="115.5" y="169.5" width="15" height="15" fill="#e6e6e3"></rect><rect x="133.5" y="169.5" width="15" height="15" fill="#e6e6e3"></rect><rect x="151.5" y="169.5" width="15" height="15" fill="#e6e6e3"></rect><rect x="169.5" y="169.5" width="15" height="15" fill="#e6e6e3"></rect><rect x="187.5" y="169.5" width="15" height="15" fill="#e6e6e3"></rect><rect x="205.5" y="169.5" width="15" height="15" fill="#e6e6e3"></rect><rect x="79.5" y="187.5" width="15" height="15" fill="#e6e6e3"></rect><rect x="97.5" y="187.5" width="15" height="15" fill="#e6e6e3"></rect><rect x="115.5" y="187.5" width="15" height="15" fill="#e6e6e3"></rect><rect x="133.5" y="187.5" width="15" height="15" fill="#e6e6e3"></rect><rect x="151.5" y="187.5" width="15" height="15" fill="#e6e6e3"></rect><rect x="169.5" y="187.5" width="15" height="15" fill="#e6e6e3"></rect><rect x="187.5" y="187.5" width="15" height="15" fill="#e6e6e3"></rect><rect x="205.5" y="187.5" width="15" height="15" fill="#e6e6e3"></rect><rect x="79.5" y="205.5" width="15" height="15" fill="#e6e6e3"></rect><rect x="97.5" y="205.5" width="15" height="15" fill="#e6e6e3"></rect><rect x="115.5" y="205.5" width="15" height="15" fill="#e6e6e3"></rect><rect x="133.5" y="205.5" width="15" height="15" fill="#e6e6e3"></rect><rect x="151.5" y="205.5" width="15" height="15" fill="#e6e6e3"></rect><rect x="169.5" y="205.5" width="15" height="15" fill="#e6e6e3"></rect><rect x="187.5" y="205.5" width="15" height="15" fill="#e6e6e3"></rect><rect x="205.5" y="205.5" width="15" height="15" fill="#e6e6e3"></rect><rect x="79.5" y="223.5" width="15" height="15" fill="#e6e6e3"></rect><rect x="97.5" y="223.5" width="15" height="15" fill="#e6e6e3"></rect><rect x="115.5" y="223.5" width="15" height="15" fill="#e6e6e3"></rect><rect x="133.5" y="223.5" width="15" height="15" fill="#e6e6e3"></rect><rect x="151.5" y="223.5" width="15" height="15" fill="#e6e6e3"></rect><rect x="169.5" y="223.5" width="15" height="15" fill="#e6e6e3"></rect><rect x="187.5" y="223.5" width="15" height="15" fill="#e6e6e3"></rect><rect x="205.5" y="223.5" width="15" height="15" fill="#e6e6e3"></rect><rect x="256.5" y="115.5" width="15" height="15" fill="#00b5e2"></rect><path d="M251.5 123 L225.5 123 M230.1 118.4 L225.5 123 L230.1 127.6" fill="none" stroke="#111" stroke-width="1.5" stroke-linecap="butt" stroke-linejoin="miter" stroke-miterlimit="10"></path><g opacity="0.3"><rect x="28.5" y="79.5" width="15" height="15" fill="#e4007c"></rect><rect x="28.5" y="151.5" width="15" height="15" fill="#ffd100"></rect><rect x="28.5" y="223.5" width="15" height="15" fill="#111"></rect><rect x="256.5" y="151.5" width="15" height="15" fill="#e40000"></rect><rect x="256.5" y="223.5" width="15" height="15" fill="#00006e"></rect></g></svg>